<svg xmlns="http://www.w3.org/2000/svg" xmlns:xlink="http://www.w3.org/1999/xlink" viewBox="0 0 128 128" width="128" height="128" preserveAspectRatio="xMidYMid meet" style="width: 100%; height: 100%; transform: translate3d(0px, 0px, 0px); content-visibility: visible;"><defs><clipPath id="__lottie_element_1222"><rect width="128" height="128" x="0" y="0"/></clipPath></defs><g clip-path="url(#__lottie_element_1222)"><g transform="matrix(0.9260958433151245,-0.2091883420944214,0.2091883420944214,0.9260958433151245,-1.7031419277191162,37.924922943115234)" opacity="1" style="display: block;"><g opacity="1" transform="matrix(1,0,0,1,23.5,37.97100067138672)"><path stroke-linecap="round" stroke-linejoin="round" fill-opacity="0" stroke="rgb(0,0,0)" stroke-opacity="1" stroke-width="7" d=" M16.5,-22 C12.22599983215332,-22 8.64799976348877,-24.979000091552734 7.729000091552734,-28.974000930786133 C7.489999771118164,-30.013999938964844 7.369999885559082,-30.53499984741211 7.089000225067139,-30.753000259399414 C6.809000015258789,-30.97100067138672 6.366000175476074,-30.961999893188477 5.480000019073486,-30.941999435424805 C-2.865000009536743,-30.760000228881836 -7.770999908447266,-30.003999710083008 -11.244999885559082,-26.854999542236328 C-11.633000373840332,-26.503999710083008 -12.003000259399414,-26.132999420166016 -12.354999542236328,-25.7450008392334 C-16.5,-21.172000885009766 -16.5,-14.114999771118164 -16.5,0 C-16.5,14.114999771118164 -16.5,21.172000885009766 -12.354999542236328,25.7450008392334 C-12.003000259399414,26.132999420166016 -11.633000373840332,26.503000259399414 -11.244999885559082,26.854999542236328 C-7.770999908447266,30.003000259399414 -2.865000009536743,30.760000228881836 5.480000019073486,30.941999435424805 C6.366000175476074,30.961999893188477 6.809000015258789,30.97100067138672 7.089000225067139,30.753000259399414 C7.369999885559082,30.53499984741211 7.489999771118164,30.013999938964844 7.729000091552734,28.974000930786133 C8.64799976348877,24.979000091552734 12.22599983215332,22 16.5,22"/></g></g><g transform="matrix(0.9260958433151245,-0.2091883420944214,0.2091883420944214,0.9260958433151245,35.33570861816406,44.61717987060547)" opacity="1" style="display: block;"><g opacity="1" transform="matrix(1,0,0,1,0,0)"><path stroke-linecap="round" stroke-linejoin="miter" fill-opacity="0" stroke-miterlimit="4" stroke-dasharray=" 9 9" stroke-dashoffset="0" stroke="rgb(0,0,0)" stroke-opacity="1" stroke-width="7" d=" M3.5,3.5 C3.5,3.5 3.5,41.5 3.5,41.5"/></g></g><g transform="matrix(0.9260958433151245,0.2091883420944214,-0.2091883420944214,0.9260958433151245,57.70990753173828,28.06732940673828)" opacity="1" style="display: block;"><g opacity="1" transform="matrix(1,0,0,1,38.5,38)"><path stroke-linecap="round" stroke-linejoin="round" fill-opacity="0" stroke="rgb(0,0,0)" stroke-opacity="1" stroke-width="7" d=" M-31.5,-22 C-27.211000442504883,-22 -23.62299919128418,-25 -22.7189998626709,-29.016000747680664 C-22.488000869750977,-30.04599952697754 -22.371999740600586,-30.562000274658203 -22.097999572753906,-30.7810001373291 C-21.823999404907227,-31 -21.381999969482422,-31 -20.5,-31 C-20.5,-31 0.5,-31 0.5,-31 C14.614999771118164,-31 21.672000885009766,-31 26.2450008392334,-26.854999542236328 C26.632999420166016,-26.503999710083008 27.003999710083008,-26.132999420166016 27.354999542236328,-25.7450008392334 C31.5,-21.172000885009766 31.5,-14.114999771118164 31.5,0 C31.5,14.114999771118164 31.5,21.172000885009766 27.354999542236328,25.7450008392334 C27.003999710083008,26.132999420166016 26.632999420166016,26.503000259399414 26.2450008392334,26.854999542236328 C21.672000885009766,31 14.614999771118164,31 0.5,31 C0.5,31 -20.5,31 -20.5,31 C-21.381999969482422,31 -21.823999404907227,31 -22.097999572753906,30.7810001373291 C-22.371999740600586,30.562000274658203 -22.488000869750977,30.04599952697754 -22.7189998626709,29.016000747680664 C-23.62299919128418,25 -27.211000442504883,22 -31.5,22"/></g></g><g transform="matrix(0.9260958433151245,0.2091883420944214,-0.2091883420944214,0.9260958433151245,57.708824157714844,43.15397644042969)" opacity="1" style="display: block;"><g opacity="1" transform="matrix(1,0,0,1,0,0)"><path stroke-linecap="round" stroke-linejoin="miter" fill-opacity="0" stroke-miterlimit="4" stroke-dasharray=" 9 9" stroke-dashoffset="0" stroke="rgb(0,0,0)" stroke-opacity="1" stroke-width="7" d=" M3.5,3.5 C3.5,3.5 3.5,41.5 3.5,41.5"/></g></g></g></svg>