<svg width="37" height="41" viewBox="0 0 37 41" fill="none" xmlns="http://www.w3.org/2000/svg">
<g clip-path="url(#clip0_1_2656)">
<path d="M2.44824 2.2099H5.42716C7.27614 2.2099 8.73136 3.90081 8.57728 5.84626L7.1563 23.9554C7.10082 24.6569 7.18316 25.3631 7.3981 26.0291C7.61304 26.6951 7.9559 27.3064 8.40494 27.8243C8.85399 28.3422 9.39944 28.7555 10.0067 29.0378C10.614 29.3201 11.2699 29.4654 11.9328 29.4644H30.1659C32.6312 29.4644 34.7883 27.319 34.9766 24.719L35.9011 11.0826C36.1066 8.06445 33.9494 5.6099 31.0904 5.6099H8.98816M14.4324 13.119H34.9766M26.8445 38.5735C27.4121 38.5735 27.9564 38.3341 28.3578 37.9079C28.7591 37.4817 28.9846 36.9036 28.9846 36.3008C28.9846 35.698 28.7591 35.12 28.3578 34.6937C27.9564 34.2675 27.4121 34.0281 26.8445 34.0281C26.277 34.0281 25.7326 34.2675 25.3313 34.6937C24.93 35.12 24.7045 35.698 24.7045 36.3008C24.7045 36.9036 24.93 37.4817 25.3313 37.9079C25.7326 38.3341 26.277 38.5735 26.8445 38.5735ZM13.1484 38.5735C13.7159 38.5735 14.2603 38.3341 14.6616 37.9079C15.0629 37.4817 15.2884 36.9036 15.2884 36.3008C15.2884 35.698 15.0629 35.12 14.6616 34.6937C14.2603 34.2675 13.7159 34.0281 13.1484 34.0281C12.5808 34.0281 12.0365 34.2675 11.6351 34.6937C11.2338 35.12 11.0083 35.698 11.0083 36.3008C11.0083 36.9036 11.2338 37.4817 11.6351 37.9079C12.0365 38.3341 12.5808 38.5735 13.1484 38.5735Z" stroke="black" stroke-width="1.6"/>
<path d="M2.44824 2.2099H5.42716C7.27614 2.2099 8.73136 3.90081 8.57728 5.84626L7.1563 23.9554C7.10082 24.6569 7.18316 25.3631 7.3981 26.0291C7.61304 26.6951 7.9559 27.3064 8.40494 27.8243C8.85399 28.3422 9.39944 28.7555 10.0067 29.0378C10.614 29.3201 11.2699 29.4654 11.9328 29.4644H30.1659C32.6312 29.4644 34.7883 27.319 34.9766 24.719L35.9011 11.0826C36.1066 8.06445 33.9494 5.6099 31.0904 5.6099H8.98816M14.4324 13.119H34.9766M26.8445 38.5735C27.4121 38.5735 27.9564 38.3341 28.3578 37.9079C28.7591 37.4817 28.9846 36.9036 28.9846 36.3008C28.9846 35.698 28.7591 35.12 28.3578 34.6937C27.9564 34.2675 27.4121 34.0281 26.8445 34.0281C26.277 34.0281 25.7326 34.2675 25.3313 34.6937C24.93 35.12 24.7045 35.698 24.7045 36.3008C24.7045 36.9036 24.93 37.4817 25.3313 37.9079C25.7326 38.3341 26.277 38.5735 26.8445 38.5735ZM13.1484 38.5735C13.7159 38.5735 14.2603 38.3341 14.6616 37.9079C15.0629 37.4817 15.2884 36.9036 15.2884 36.3008C15.2884 35.698 15.0629 35.12 14.6616 34.6937C14.2603 34.2675 13.7159 34.0281 13.1484 34.0281C12.5808 34.0281 12.0365 34.2675 11.6351 34.6937C11.2338 35.12 11.0083 35.698 11.0083 36.3008C11.0083 36.9036 11.2338 37.4817 11.6351 37.9079C12.0365 38.3341 12.5808 38.5735 13.1484 38.5735Z" stroke="#F9F2E6" stroke-width="1.6"/>
</g>
<defs>
<clipPath id="clip0_1_2656">
<rect width="35.9524" height="40" fill="white" transform="translate(0.898438 0.0854492)"/>
</clipPath>
</defs>
</svg>
